<?xml version="1.0" standalone="no"?>
<!DOCTYPE svg PUBLIC "-//W3C//DTD SVG 20010904//EN"
 "http://www.w3.org/TR/2001/REC-SVG-20010904/DTD/svg10.dtd">
<svg version="1.0" xmlns="http://www.w3.org/2000/svg"
 width="33.000000pt" height="33.000000pt" viewBox="0 0 33.000000 33.000000"
 preserveAspectRatio="xMidYMid meet">

<g transform="translate(0.000000,33.000000) scale(0.100000,-0.100000)"
fill="#000000" stroke="none">
<path d="M91 314 c-21 -15 -21 -18 -7 -26 23 -13 20 -31 -9 -58 -15 -14 -28
-40 -32 -63 -4 -27 -12 -41 -24 -44 -16 -5 -19 -15 -19 -64 0 -59 0 -59 30
-59 29 0 30 2 30 45 0 38 3 45 20 45 17 0 20 -7 20 -45 l0 -45 115 0 115 0 0
59 c0 51 -3 61 -20 66 -13 4 -20 15 -20 30 0 65 -52 105 -134 105 -43 0 -59
11 -36 25 12 7 14 45 2 45 -4 0 -18 -7 -31 -16z m133 -120 c13 -35 7 -44 -34
-44 -38 0 -40 2 -40 30 0 27 3 30 34 30 22 0 36 -6 40 -16z m-1 -71 c-29 -2
-77 -2 -105 0 -29 2 -6 3 52 3 58 0 81 -1 53 -3z"/>
<path d="M170 180 c0 -15 5 -20 18 -18 9 2 17 10 17 18 0 8 -8 16 -17 18 -13
2 -18 -3 -18 -18z"/>
</g>
</svg>
